<!DOCTYPE svg PUBLIC "-//W3C//DTD SVG 1.1//EN" "http://www.w3.org/Graphics/SVG/1.1/DTD/svg11.dtd"><svg width="362" height="120" viewBox="0 0 362 120" version="1.1" xmlns="http://www.w3.org/2000/svg" xmlns:xlink="http://www.w3.org/1999/xlink" xml:space="preserve" xmlns:serif="http://www.serif.com/" style="fill-rule:evenodd;clip-rule:evenodd;stroke-miterlimit:1.5;">
    <g fill="#f1b6b6">
        <path d="M143.762,35.455l2.006,0l16.918,36.818c-4.17,5.312 -10.65,8.727 -17.921,8.727c-7.271,0 -13.751,-3.415 -17.921,-8.727l16.918,-36.818Zm1.139,1.636l-0.272,0l-0.502,1.636l-15.044,33l31.364,0l-15.044,-33l-0.502,-1.636Z"/>
        <path d="M216.035,35.455l2.005,0l16.919,36.818c-4.17,5.312 -10.65,8.727 -17.921,8.727c-7.271,0 -13.751,-3.415 -17.922,-8.727l16.919,-36.818Zm1.139,1.636l-0.273,0l-0.501,1.636l-15.044,33.026l31.364,0l-15.044,-33.026l-0.502,-1.636Z"/>
        <path d="M180.901,22.364c18.68,0 29.168,10.909 36.137,10.909c0.271,0 0.92,-0.101 1.091,-0.273c-0.385,-0.066 -0.819,-0.456 -0.819,-1.091c0,-0.839 0.53,-1.364 1.364,-1.364c0.834,0 2.182,0.557 2.182,2.182c0,1.831 -1.599,2.728 -3.818,2.728c-6.002,0 -16.175,-6.273 -36.137,-6.273c-19.961,0 -30.135,6.273 -36.136,6.273c-2.219,0 -3.818,-0.897 -3.818,-2.728c0,-1.625 1.347,-2.182 2.182,-2.182c0.834,0 1.363,0.525 1.363,1.364c0,0.635 -0.434,1.025 -0.818,1.091c0.171,0.172 0.82,0.273 1.091,0.273c6.969,0 17.457,-10.909 36.136,-10.909l0,0Zm1.202,2.511c-0.273,-0.365 -0.71,-0.602 -1.202,-0.602c-0.827,0 -1.5,0.672 -1.5,1.5c0,0.828 0.673,1.5 1.5,1.5c0.828,0 1.5,-0.672 1.5,-1.5c0,-0.337 -0.111,-0.647 -0.298,-0.898Z"/>
        <path d="M203.538,102c0.564,0.726 0.556,1.453 0,2.182c0,0 -4.124,1.091 -22.637,1.091c-18.513,0 -22.636,-1.091 -22.636,-1.091c-0.557,-0.729 -0.564,-1.456 0,-2.182l2.182,0l1.363,-1.364c7.639,-0.511 14.515,-2.452 16.696,-11.139c-1.027,-0.743 -1.696,-1.952 -1.696,-3.315c0,-1.456 0.763,-2.735 1.91,-3.461l0,-50.266c0,0 -1.091,-0.141 -1.091,-0.819c0,-0.677 1.091,-0.818 1.091,-0.818l0,-10.091c0,0 -1.091,-0.15 -1.091,-0.818c0,-0.667 1.133,-0.818 1.133,-0.818l0.915,-2.914c-1.661,-0.521 -2.867,-2.073 -2.867,-3.904c0,-2.258 1.834,-4.091 4.091,-4.091c2.258,0 4.091,1.833 4.091,4.091c0,1.831 -1.206,3.383 -2.866,3.904l0.914,2.914c0,0 1.134,0.123 1.134,0.818c0,0.695 -1.091,0.818 -1.091,0.818l0,10.091c0,0 1.091,0.136 1.091,0.818c0,0.683 -1.091,0.819 -1.091,0.819l0,50.266c1.147,0.726 1.909,2.005 1.909,3.461c0,1.363 -0.668,2.572 -1.695,3.315c2.181,8.687 8.969,10.47 16.695,11.139l1.364,1.364l2.182,0Zm-22.637,-77.727c0.828,0 1.5,0.672 1.5,1.5c0,0.828 -0.672,1.5 -1.5,1.5c-0.827,0 -1.5,-0.672 -1.5,-1.5c0,-0.828 0.673,-1.5 1.5,-1.5Z"/>
    </g>
    <path d="M260.901,72.154l100,0" style="fill:none;stroke:#f1b6b6;stroke-width:1px;"/>
    <path d="M0.901,72.154l100,0" style="fill:none;stroke:#f1b6b6;stroke-width:1px;"/>
</svg>
